<?xml version="1.0" encoding="iso-8859-1"?>
<!-- Generator: Adobe Illustrator 19.0.0, SVG Export Plug-In . SVG Version: 6.00 Build 0)  -->
<svg version="1.1" id="Layer_1" xmlns="http://www.w3.org/2000/svg" xmlns:xlink="http://www.w3.org/1999/xlink" x="0px" y="0px"
	 viewBox="0 0 496 496" style="enable-background:new 0 0 496 496;" xml:space="preserve">
<path style="fill:#B2B093;" d="M496,409.6c0,12-9.6,24-21.6,24H12.8c-12,0-12.8-12.8-12.8-24V107.2c0-12,0.8-17.6,12.8-17.6h461.6
	c12,0,21.6,5.6,21.6,17.6V409.6z"/>
<path style="fill:#E8E7C5;" d="M496,397.6c0,12-9.6,20-21.6,20H12.8c-12,0-12.8-8-12.8-20V95.2c0-12,0.8-21.6,12.8-21.6h461.6
	c12,0,21.6,9.6,21.6,21.6V397.6z"/>
<path style="fill:#DBD9B9;" d="M496,97.6v300c0,12-9.6,20-21.6,20H12.8c-12,0-12.8-8-12.8-20v-300"/>
<path style="fill:#F7C75C;" d="M393.6,268c0,57.6-46.4,83.2-104.8,83.2c-57.6,0-104.8-25.6-104.8-83.2s46.4-104.8,104.8-104.8
	C347.2,164,393.6,210.4,393.6,268z"/>
<path style="fill:#EFAC25;" d="M289.6,164c57.6,0,104.8,46.4,104.8,104.8c0,57.6-46.4,83.2-104.8,83.2"/>
<polygon style="fill:#1DBDCE;" points="47.2,347.2 156,246.4 195.2,285.6 276.8,204 374.4,301.6 392,284 392,361.6 28.8,361.6 "/>
<polygon style="fill:#0E94AA;" points="79.2,347.2 156,246.4 220.8,312 276.8,204 383.2,310.4 392,284 392,361.6 28.8,361.6 "/>
<g>
	<circle style="fill:#F2F1E2;" cx="84.8" cy="153.6" r="24"/>
	<circle style="fill:#F2F1E2;" cx="99.2" cy="177.6" r="30.4"/>
	<circle style="fill:#F2F1E2;" cx="68.8" cy="175.2" r="24"/>
	<circle style="fill:#F2F1E2;" cx="111.2" cy="149.6" r="20"/>
	<circle style="fill:#F2F1E2;" cx="140.8" cy="171.2" r="12.8"/>
	<circle style="fill:#F2F1E2;" cx="45.6" cy="171.2" r="12.8"/>
	<circle style="fill:#F2F1E2;" cx="41.6" cy="134.4" r="5.6"/>
	<circle style="fill:#F2F1E2;" cx="198.4" cy="205.6" r="14.4"/>
	<circle style="fill:#F2F1E2;" cx="189.6" cy="220" r="18.4"/>
	<circle style="fill:#F2F1E2;" cx="208" cy="218.4" r="14.4"/>
	<circle style="fill:#F2F1E2;" cx="182.4" cy="203.2" r="12"/>
	<circle style="fill:#F2F1E2;" cx="165.6" cy="216" r="7.2"/>
	<circle style="fill:#F2F1E2;" cx="221.6" cy="216" r="7.2"/>
	<circle style="fill:#F2F1E2;" cx="224" cy="194.4" r="3.2"/>
</g>
<polygon style="fill:#B2B093;" points="445.6,76 491.2,416.8 482.4,425.6 436.8,425.6 "/>
<path style="fill:#BC086B;" d="M448,441.6c0,8.8-7.2,9.6-16,9.6l0,0c-8.8,0-16-0.8-16-9.6v-384c0-8.8,7.2-8,16-8l0,0
	c8.8,0,16-0.8,16,8V441.6z"/>
<path style="fill:#870653;" d="M440,441.6c0,9.6-4,16.8-8,16.8l0,0c-4,0-8-7.2-8-16.8V59.2c0-9.6,4-9.6,8-9.6l0,0c4,0,8,0,8,8.8
	V441.6z"/>
<path style="fill:#66495D;" d="M448,57.6v-20c0-9.6-6.4-17.6-16-17.6s-16,8-16,17.6v20H448z"/>
<path style="fill:#38192D;" d="M416,57.6h32v-20c0-9.6-6.4-17.6-16-17.6"/>
<polygon style="fill:#F7C75C;" points="448,445.6 432,476 416,445.6 432,444.8 "/>
<polyline style="fill:#EFAC25;" points="432,444.8 448,445.6 432,476 "/>
<polygon style="fill:#725B6C;" points="422.4,457.6 432,476 441.6,457.6 432,457.6 "/>
<polyline style="fill:#38192D;" points="432,476 441.6,457.6 432,457.6 "/>
<g>
</g>
<g>
</g>
<g>
</g>
<g>
</g>
<g>
</g>
<g>
</g>
<g>
</g>
<g>
</g>
<g>
</g>
<g>
</g>
<g>
</g>
<g>
</g>
<g>
</g>
<g>
</g>
<g>
</g>
</svg>
